<svg xmlns="http://www.w3.org/2000/svg" xmlns:xlink="http://www.w3.org/1999/xlink"><symbol id="logo" viewBox="0 0 52 52">
<path fill-rule="evenodd" clip-rule="evenodd" d="M7.97819 7.97262L26 0.507744L44.0218 7.97262L51.489 26L44.0218 44.0274L26 51.4923L7.97819 44.0274L0.511004 26L7.97819 7.97262ZM26 0L44.3848 7.61522L52 26L44.3848 44.3848L26 52L7.61522 44.3848L0 26L7.61522 7.61522L26 0ZM22.5075 20.8131C22.0196 20.7119 21.4183 20.6613 20.7036 20.6613C19.535 20.6613 18.4799 20.8862 17.5382 21.3359C16.6079 21.7857 15.8761 22.4209 15.3428 23.2417C14.8096 24.0512 14.543 24.9844 14.543 26.0412C14.543 27.1318 14.8039 28.0987 15.3258 28.942C15.8477 29.7852 16.5738 30.443 17.5041 30.9152C18.4458 31.3761 19.5123 31.6066 20.7036 31.6066C21.3729 31.6066 21.9629 31.5504 22.4735 31.438C22.9953 31.3256 23.5513 31.1288 24.1412 30.8477C24.2093 30.8027 24.2547 30.7634 24.2774 30.7297C24.3001 30.6959 24.3171 30.6116 24.3284 30.4767L24.4986 28.6216C24.4986 28.5878 24.4589 28.571 24.3795 28.571C24.3228 28.571 24.2944 28.5822 24.2944 28.6047C23.9881 29.5266 23.5456 30.2125 22.967 30.6622C22.3884 31.1119 21.6339 31.3368 20.7036 31.3368C19.83 31.3368 19.0188 31.1007 18.27 30.6285C17.5325 30.1563 16.9425 29.5154 16.5001 28.7059C16.0689 27.8851 15.8534 26.9857 15.8534 26.0075C15.8534 24.9844 16.0519 24.0905 16.449 23.326C16.8461 22.5502 17.4077 21.9543 18.1338 21.5383C18.8599 21.1223 19.6995 20.9143 20.6525 20.9143C22.4678 20.9143 23.6364 21.8531 24.1583 23.7307C24.1696 23.7645 24.2036 23.7813 24.2604 23.7813C24.3284 23.7701 24.3625 23.7476 24.3625 23.7139L24.1583 21.707C24.1356 21.572 24.1185 21.4877 24.1072 21.454C24.0959 21.4203 24.0505 21.3809 23.9711 21.3359C23.4832 21.0886 22.9953 20.9143 22.5075 20.8131ZM37.714 31.2862C37.714 31.2187 37.697 31.185 37.663 31.185C37.2318 31.185 36.9142 31.1569 36.71 31.1007C36.5057 31.0445 36.3639 30.9377 36.2845 30.7803C36.2164 30.6116 36.1824 30.3586 36.1824 30.0213V22.2129C36.1824 21.8756 36.2164 21.6283 36.2845 21.4708C36.3639 21.3134 36.5057 21.2066 36.71 21.1504C36.9142 21.083 37.2318 21.0492 37.663 21.0492C37.697 21.0492 37.714 21.0155 37.714 20.948C37.714 20.8806 37.697 20.8468 37.663 20.8468L36.8291 20.8637C36.3526 20.8862 35.9612 20.8974 35.6548 20.8974C35.3145 20.8974 34.8947 20.8862 34.3955 20.8637L33.5956 20.8468C33.5616 20.8468 33.5446 20.8806 33.5446 20.948C33.5446 21.0155 33.5616 21.0492 33.5956 21.0492C34.0381 21.0492 34.3615 21.083 34.5657 21.1504C34.7699 21.2179 34.906 21.3359 34.9741 21.5046C35.0535 21.662 35.0932 21.9093 35.0932 22.2466V25.7208H28.5583V22.2466C28.5583 21.9093 28.5923 21.662 28.6604 21.5046C28.7398 21.3359 28.8816 21.2179 29.0858 21.1504C29.3014 21.083 29.6247 21.0492 30.0559 21.0492C30.0785 21.0492 30.0899 21.0155 30.0899 20.948C30.0899 20.8806 30.0785 20.8468 30.0559 20.8468L29.239 20.8637C28.7398 20.8862 28.3257 20.8974 27.9967 20.8974C27.713 20.8974 27.3329 20.8862 26.8564 20.8637L25.9885 20.8468C25.9658 20.8468 25.9545 20.8806 25.9545 20.948C25.9545 21.0155 25.9658 21.0492 25.9885 21.0492C26.4196 21.0492 26.7373 21.083 26.9415 21.1504C27.1457 21.2066 27.2819 21.3134 27.35 21.4708C27.4294 21.6283 27.4691 21.8756 27.4691 22.2129V30.0213C27.4691 30.3586 27.4294 30.6116 27.35 30.7803C27.2819 30.9377 27.1401 31.0445 26.9245 31.1007C26.7203 31.1569 26.4026 31.185 25.9715 31.185C25.9488 31.185 25.9375 31.2187 25.9375 31.2862C25.9375 31.3537 25.9488 31.3874 25.9715 31.3874C26.3345 31.3874 26.6182 31.3818 26.8224 31.3705L27.9967 31.3537L29.222 31.3705C29.4262 31.3818 29.7041 31.3874 30.0559 31.3874C30.0785 31.3874 30.0899 31.3537 30.0899 31.2862C30.0899 31.2187 30.0785 31.185 30.0559 31.185C29.6134 31.185 29.29 31.1569 29.0858 31.1007C28.8816 31.0445 28.7398 30.9377 28.6604 30.7803C28.5923 30.6116 28.5583 30.3586 28.5583 30.0213V26.075H35.0932V30.0213C35.0932 30.3586 35.0535 30.6116 34.9741 30.7803C34.906 30.9377 34.7699 31.0445 34.5657 31.1007C34.3615 31.1569 34.0381 31.185 33.5956 31.185C33.5616 31.185 33.5446 31.2187 33.5446 31.2862C33.5446 31.3537 33.5616 31.3874 33.5956 31.3874C33.936 31.3874 34.2026 31.3818 34.3955 31.3705L35.6548 31.3537L36.8291 31.3705C37.0333 31.3818 37.3113 31.3874 37.663 31.3874C37.697 31.3874 37.714 31.3537 37.714 31.2862Z"/>
</symbol><symbol id="icon_accordion-down" viewBox="0 0 25 14">
<path d="M1 1L12.5 13L24 1" stroke="#A87B62"/>
</symbol><symbol id="icon_accordion-up" viewBox="0 0 25 14">
<path d="M24 13L12.5 1L1 13" stroke="#A87B62"/>
</symbol><symbol id="icon_arrow-footer" viewBox="0 0 30 11">
<path d="M0 5.5H29M29 5.5L23.5135 1M29 5.5L23.5135 10" stroke="white"/>
</symbol><symbol id="icon_arrow-slider-next" viewBox="0 0 37 17">
<path d="M0 8.5H36M36 8.5L26.7297 1M36 8.5L26.7297 16" stroke="#A87B62"/>
</symbol><symbol id="icon_arrow-slider-previous" viewBox="0 0 37 17">
<path d="M37 8.5L1 8.5M1 8.5L10.2703 16M1 8.5L10.2703 1" stroke="#A87B62"/>
</symbol><symbol id="icon_close" viewBox="0 0 14 14">
<path d="M7 5.44469L12.4447 0L14 1.55531L8.55531 7L14 12.4447L12.4447 14L7 8.55531L1.55531 14L0 12.4447L5.44469 7L0 1.55531L1.55531 0L7 5.44469Z" fill="white"/>
</symbol><symbol id="icon_facebook" viewBox="0 0 8 15">
<path d="M5.33333 8.625H7.2381L8 5.625H5.33333V4.125C5.33333 3.3525 5.33333 2.625 6.85714 2.625H8V0.105C7.75162 0.0727501 6.81371 0 5.82324 0C3.75467 0 2.28571 1.24275 2.28571 3.525V5.625H0V8.625H2.28571V15H5.33333V8.625Z" fill="white"/>
</symbol><symbol id="icon_instagram" viewBox="0 0 15 15">
<path d="M7.5 0C9.53775 0 9.792 0.00749996 10.5915 0.045C11.3903 0.0825 11.934 0.20775 12.4125 0.39375C12.9075 0.58425 13.3245 0.84225 13.7415 1.2585C14.1229 1.63342 14.418 2.08694 14.6063 2.5875C14.7915 3.06525 14.9175 3.60975 14.955 4.4085C14.9903 5.208 15 5.46225 15 7.5C15 9.53775 14.9925 9.792 14.955 10.5915C14.9175 11.3903 14.7915 11.934 14.6063 12.4125C14.4185 12.9133 14.1233 13.367 13.7415 13.7415C13.3665 14.1227 12.913 14.4178 12.4125 14.6063C11.9347 14.7915 11.3903 14.9175 10.5915 14.955C9.792 14.9903 9.53775 15 7.5 15C5.46225 15 5.208 14.9925 4.4085 14.955C3.60975 14.9175 3.066 14.7915 2.5875 14.6063C2.08674 14.4184 1.63315 14.1232 1.2585 13.7415C0.877055 13.3666 0.581949 12.9131 0.39375 12.4125C0.20775 11.9347 0.0825 11.3903 0.045 10.5915C0.00974996 9.792 0 9.53775 0 7.5C0 5.46225 0.00749996 5.208 0.045 4.4085C0.0825 3.609 0.20775 3.066 0.39375 2.5875C0.581427 2.08663 0.876603 1.63299 1.2585 1.2585C1.63325 0.876923 2.08682 0.581797 2.5875 0.39375C3.066 0.20775 3.609 0.0825 4.4085 0.045C5.208 0.00974996 5.46225 0 7.5 0ZM7.5 3.75C6.50544 3.75 5.55161 4.14509 4.84835 4.84835C4.14509 5.55161 3.75 6.50544 3.75 7.5C3.75 8.49456 4.14509 9.44839 4.84835 10.1517C5.55161 10.8549 6.50544 11.25 7.5 11.25C8.49456 11.25 9.44839 10.8549 10.1517 10.1517C10.8549 9.44839 11.25 8.49456 11.25 7.5C11.25 6.50544 10.8549 5.55161 10.1517 4.84835C9.44839 4.14509 8.49456 3.75 7.5 3.75ZM12.375 3.5625C12.375 3.31386 12.2762 3.0754 12.1004 2.89959C11.9246 2.72377 11.6861 2.625 11.4375 2.625C11.1889 2.625 10.9504 2.72377 10.7746 2.89959C10.5988 3.0754 10.5 3.31386 10.5 3.5625C10.5 3.81114 10.5988 4.0496 10.7746 4.22541C10.9504 4.40123 11.1889 4.5 11.4375 4.5C11.6861 4.5 11.9246 4.40123 12.1004 4.22541C12.2762 4.0496 12.375 3.81114 12.375 3.5625ZM7.5 5.25C8.09674 5.25 8.66903 5.48705 9.09099 5.90901C9.51295 6.33097 9.75 6.90326 9.75 7.5C9.75 8.09674 9.51295 8.66903 9.09099 9.09099C8.66903 9.51295 8.09674 9.75 7.5 9.75C6.90326 9.75 6.33097 9.51295 5.90901 9.09099C5.48705 8.66903 5.25 8.09674 5.25 7.5C5.25 6.90326 5.48705 6.33097 5.90901 5.90901C6.33097 5.48705 6.90326 5.25 7.5 5.25Z" fill="white"/>
</symbol><symbol id="icon_login" viewBox="0 0 20 18">
<path fill-rule="evenodd" clip-rule="evenodd" d="M0 1C0 0.447715 0.447715 0 1 0H19C19.5523 0 20 0.447715 20 1V17C20 17.5523 19.5523 18 19 18H1C0.447715 18 0 17.5523 0 17V1ZM2 2V16H18V2H2ZM6 4C6.55228 4 7 4.44772 7 5C7 5.79565 7.31607 6.55871 7.87868 7.12132C8.44129 7.68393 9.20435 8 10 8C10.7956 8 11.5587 7.68393 12.1213 7.12132C12.6839 6.55871 13 5.79565 13 5C13 4.44772 13.4477 4 14 4C14.5523 4 15 4.44772 15 5C15 6.32608 14.4732 7.59785 13.5355 8.53553C12.5979 9.47322 11.3261 10 10 10C8.67392 10 7.40215 9.47322 6.46447 8.53553C5.52678 7.59785 5 6.32608 5 5C5 4.44772 5.44772 4 6 4Z"/>
</symbol><symbol id="icon_menu-burger--light" viewBox="0 0 25 18">
<path d="M0 1H25M0 9H25M0 17H25" stroke="white" stroke-width="2"/>
</symbol><symbol id="icon_menu-burger" viewBox="0 0 25 18">
<path d="M0 1H25M0 9H25M0 17H25" stroke-width="2"/>
</symbol><symbol id="icon_pinterest" viewBox="0 0 16 15">
<path d="M8.52464 0.0700085C6.73009 -0.176851 4.90683 0.233922 3.39151 1.22648C1.8762 2.21903 0.771177 3.72633 0.280492 5.47006C-0.210193 7.21378 -0.0534017 9.07616 0.721915 10.7133C1.49723 12.3504 2.83871 13.6518 4.49864 14.377C4.45375 13.8009 4.49496 13.2213 4.62089 12.6573C4.75964 12.028 5.59289 8.56001 5.59289 8.56001C5.42697 8.18808 5.34405 7.78448 5.34989 7.37726C5.34989 6.26351 5.99264 5.43251 6.79214 5.43251C6.93577 5.43042 7.07817 5.45928 7.20965 5.51713C7.34113 5.57498 7.45861 5.66047 7.5541 5.76778C7.6496 5.87508 7.72087 6.00169 7.76306 6.139C7.80526 6.27631 7.81739 6.42109 7.79864 6.56351C7.79864 7.23851 7.36514 8.26001 7.13864 9.21851C7.09388 9.39429 7.09104 9.57814 7.13035 9.75522C7.16966 9.93231 7.25002 10.0977 7.36496 10.238C7.4799 10.3783 7.6262 10.4897 7.79207 10.5631C7.95793 10.6366 8.13873 10.67 8.31989 10.6608C9.74339 10.6608 10.6974 8.83751 10.6974 6.68501C10.6974 5.03501 9.60464 3.79901 7.59014 3.79901C7.10817 3.78028 6.62743 3.8597 6.17709 4.03245C5.72676 4.2052 5.31623 4.46767 4.97043 4.80392C4.62463 5.14018 4.35078 5.54321 4.16551 5.98854C3.98023 6.43387 3.8874 6.9122 3.89264 7.39451C3.87117 7.9295 4.04377 8.45423 4.37864 8.87201C4.44122 8.91872 4.48691 8.98451 4.50882 9.05946C4.53074 9.1344 4.52769 9.21444 4.50014 9.28751C4.46564 9.42551 4.37864 9.75476 4.34414 9.87551C4.33697 9.91646 4.32027 9.95515 4.29541 9.98847C4.27054 10.0218 4.2382 10.0488 4.20099 10.0673C4.16378 10.0859 4.12273 10.0954 4.08116 10.0952C4.03959 10.0949 3.99865 10.085 3.96164 10.066C2.92364 9.65051 2.43464 8.50826 2.43464 7.20401C2.43464 5.06876 4.22264 2.51276 7.80014 2.51276C10.6471 2.51276 12.5401 4.59551 12.5401 6.82301C12.5401 9.75476 10.9074 11.959 8.49464 11.959C8.13403 11.9705 7.77634 11.891 7.45464 11.7276C7.13294 11.5643 6.85762 11.3224 6.65414 11.0245C6.65414 11.0245 6.22064 12.7615 6.13514 13.09C5.96061 13.6575 5.70307 14.1961 5.37089 14.6883C6.06314 14.8983 6.78239 15.0033 7.50539 15.0003C8.49058 15.001 9.46624 14.8075 10.3765 14.4307C11.2868 14.0539 12.1138 13.5012 12.8102 12.8043C13.5066 12.1075 14.0587 11.2801 14.4348 10.3695C14.811 9.45899 15.0039 8.48319 15.0024 7.49801C15.0015 5.68676 14.3452 3.937 13.1549 2.57184C11.9645 1.20668 10.3204 0.318307 8.52614 0.0707584L8.52464 0.0700085Z" fill="white"/>
</symbol><symbol id="icon_search" viewBox="0 0 16 16">
<path d="M12.6266 11.5128L16 14.8855L14.8855 16L11.5128 12.6266C10.2579 13.6325 8.69706 14.1797 7.08871 14.1774C3.17574 14.1774 0 11.0017 0 7.08871C0 3.17574 3.17574 0 7.08871 0C11.0017 0 14.1774 3.17574 14.1774 7.08871C14.1797 8.69706 13.6325 10.2579 12.6266 11.5128ZM11.0466 10.9284C12.0462 9.90047 12.6044 8.52254 12.6021 7.08871C12.6021 4.04214 10.1345 1.57527 7.08871 1.57527C4.04214 1.57527 1.57527 4.04214 1.57527 7.08871C1.57527 10.1345 4.04214 12.6021 7.08871 12.6021C8.52254 12.6044 9.90047 12.0462 10.9284 11.0466L11.0466 10.9284Z"/>
</symbol><symbol id="icon_twitter" viewBox="0 0 15 13">
<path d="M14.9993 1.54324C14.4375 1.80812 13.8417 1.98209 13.2317 2.05937C13.8747 1.64947 14.3559 1.00438 14.5857 0.244297C13.9823 0.627078 13.3207 0.895338 12.6312 1.04045C12.1681 0.512227 11.5542 0.161908 10.885 0.0439529C10.2158 -0.0740019 9.52875 0.047017 8.93073 0.388195C8.33271 0.729374 7.85718 1.2716 7.57809 1.93057C7.29899 2.58954 7.23196 3.32833 7.38741 4.0321C6.16374 3.96673 4.96664 3.62777 3.87384 3.03724C2.78104 2.4467 1.81696 1.6178 1.0442 0.604331C0.770671 1.10512 0.626929 1.67441 0.627698 2.2539C0.627698 3.39126 1.17077 4.39606 1.99642 4.98435C1.50781 4.96795 1.02995 4.8273 0.602679 4.57411V4.6149C0.602826 5.37238 0.848731 6.1065 1.2987 6.69279C1.74867 7.27907 2.37501 7.68144 3.07153 7.83167C2.61795 7.96269 2.14235 7.98201 1.68073 7.88815C1.87711 8.54016 2.25987 9.11038 2.77541 9.51897C3.29095 9.92757 3.91346 10.1541 4.55578 10.1668C3.9174 10.7012 3.18645 11.0963 2.40474 11.3294C1.62303 11.5625 0.805873 11.6291 0 11.5253C1.40676 12.4897 3.04437 13.0017 4.71693 13C10.378 13 13.4738 8.0011 13.4738 3.66579C13.4738 3.5246 13.4701 3.38184 13.4642 3.24222C14.0668 2.778 14.5869 2.20293 15 1.54403L14.9993 1.54324Z" fill="white"/>
</symbol></svg>